<?xml version="1.0" standalone="no"?>
<!DOCTYPE svg PUBLIC "-//W3C//DTD SVG 20010904//EN"
 "http://www.w3.org/TR/2001/REC-SVG-20010904/DTD/svg10.dtd">
<svg version="1.0" xmlns="http://www.w3.org/2000/svg"
 width="411.000000pt" height="411.000000pt" viewBox="0 0 411.000000 411.000000"
 preserveAspectRatio="xMidYMid meet">
<metadata>
Created by potrace 1.14, written by Peter Selinger 2001-2017
</metadata>
<g transform="translate(0.000000,411.000000) scale(0.100000,-0.100000)"
fill="#000000" stroke="none">
<path d="M130 2115 l0 -95 27 0 26 0 -23 -25 c-19 -20 -25 -40 -28 -90 l-4
-65 41 0 41 0 0 55 c0 39 4 57 14 61 8 3 54 6 103 7 l88 2 0 30 0 30 -102 -2
-103 -2 0 89 c0 94 -3 100 -56 100 -24 0 -24 -1 -24 -95z"/>
<path d="M447 2203 c-4 -3 -7 -87 -7 -185 l0 -178 38 0 37 0 0 178 c0 108 -4
180 -10 184 -13 10 -49 10 -58 1z"/>
<path d="M594 2180 c-5 -23 -12 -30 -30 -30 -13 0 -24 -6 -25 -12 -4 -49 -5
-275 -1 -285 2 -7 19 -13 38 -13 l33 0 3 58 3 57 99 0 c80 0 101 3 109 16 21
33 1 51 -55 49 -29 -1 -77 -1 -105 -1 l-53 1 0 60 c0 33 3 60 8 61 47 7 198 2
209 -6 12 -9 15 -37 15 -136 -1 -156 0 -159 44 -159 l34 0 0 145 c0 86 -5 154
-11 169 -19 42 -62 54 -192 55 l-117 2 -6 -31z"/>
<path d="M1007 2203 c-4 -3 -7 -17 -7 -29 0 -17 -7 -23 -27 -26 -27 -3 -28 -5
-26 -52 1 -38 7 -55 27 -75 25 -24 33 -26 139 -29 61 -1 118 -5 125 -7 7 -3
12 -21 12 -45 l0 -40 -110 0 c-109 0 -110 0 -116 25 -5 21 -12 25 -44 25 -34
0 -37 -2 -32 -25 2 -14 8 -22 13 -19 5 3 6 -1 3 -9 -3 -9 6 -24 22 -36 24 -19
39 -21 155 -21 l129 0 0 31 c0 22 4 30 13 26 21 -8 37 7 39 34 2 52 -3 71 -27
94 -23 24 -31 25 -133 25 -126 0 -145 8 -140 60 l3 34 70 -1 c145 -2 141 -1
153 -28 9 -19 19 -25 42 -25 26 0 30 4 30 26 0 72 -44 94 -193 94 -62 0 -117
-3 -120 -7z"/>
<path d="M1409 2188 c-1 -13 -1 -26 0 -30 0 -5 -12 -8 -29 -8 -28 0 -30 -2
-30 -39 0 -97 34 -119 185 -120 54 -1 103 -5 109 -11 5 -5 11 -25 12 -45 l3
-35 -104 0 c-100 0 -105 1 -121 25 -20 31 -84 37 -84 8 0 -29 38 -82 62 -88
13 -3 77 -4 143 -3 104 3 120 5 117 19 -2 15 26 48 35 42 29 -22 32 79 3 117
-18 24 -25 25 -144 30 -68 3 -127 8 -131 11 -3 4 -7 23 -9 43 -4 40 -7 38 84
38 128 -1 132 -1 137 -22 5 -20 29 -30 66 -28 20 1 22 26 6 62 -20 43 -64 56
-193 56 -113 0 -116 -1 -117 -22z"/>
<path d="M1817 2204 c-4 -4 -7 -18 -7 -31 0 -18 -5 -23 -25 -23 -14 0 -25 -3
-26 -7 -3 -31 -4 -281 -1 -290 2 -7 19 -13 38 -13 l33 0 3 58 3 57 95 1 c52 1
100 2 106 3 13 1 13 43 -1 53 -5 4 -54 8 -107 8 l-98 0 0 63 0 62 104 -1 c57
-1 108 -4 115 -8 7 -5 11 -54 11 -152 l0 -144 41 0 40 0 -3 155 c-3 154 -3
155 -31 182 -27 27 -31 28 -155 31 -70 2 -131 0 -135 -4z"/>
<path d="M2233 2203 c-7 -3 -13 -16 -13 -29 0 -24 -8 -28 -42 -25 -16 2 -18
-11 -18 -153 l0 -156 40 0 41 0 -3 155 c-3 151 -3 154 15 132 10 -12 40 -67
68 -122 27 -55 55 -107 62 -115 21 -27 61 -50 85 -50 21 0 24 4 20 29 -3 20 0
28 11 28 53 0 50 -8 49 153 0 150 0 150 -24 156 -52 13 -55 5 -54 -133 1 -71
1 -139 1 -152 l-1 -24 -21 26 c-11 15 -38 66 -60 114 -23 49 -52 102 -65 119
-24 32 -68 55 -91 47z"/>
<path d="M2838 2198 c0 -7 -1 -20 -2 -28 -1 -9 -13 -16 -28 -18 -23 -3 -28 -9
-29 -30 -1 -29 -1 -223 0 -259 1 -19 7 -23 36 -23 l35 0 0 58 0 57 100 0 c55
-1 100 3 100 8 0 4 5 5 11 2 7 -5 9 3 7 21 l-3 29 -107 3 -108 3 0 59 c0 69
-12 63 128 62 46 0 88 -4 94 -10 7 -7 11 -67 11 -151 l1 -141 38 0 38 0 0 145
c0 160 -7 187 -54 208 -42 20 -265 24 -268 5z"/>
<path d="M3187 2204 c-4 -4 -7 -71 -7 -148 0 -215 5 -219 230 -214 l124 3 0
25 0 25 -132 3 c-156 3 -141 -15 -145 177 l-2 130 -30 3 c-17 2 -34 0 -38 -4z"/>
<path d="M3564 2195 c-3 -8 -4 -22 -2 -32 3 -16 17 -18 157 -19 185 -1 193 0
189 35 l-3 26 -168 2 c-135 1 -169 -1 -173 -12z"/>
<path d="M3697 2103 c-2 -5 -3 -52 -2 -105 l1 -97 -70 -3 c-73 -3 -73 -3 -67
-48 0 -6 34 -10 76 -10 61 0 75 3 75 15 0 14 3 14 30 0 18 -9 56 -15 100 -15
l70 0 0 30 c0 30 0 30 -58 30 -32 0 -63 5 -70 12 -8 8 -12 46 -12 105 l0 93
-34 0 c-19 0 -36 -3 -39 -7z"/>
</g>
</svg>
